<svg xmlns="http://www.w3.org/2000/svg" shape-rendering="geometricPrecision" text-rendering="geometricPrecision" image-rendering="optimizeQuality" fill-rule="evenodd" clip-rule="evenodd" viewBox="0 0 512 435.32"><path d="M420.14.52c58.98-6.77 113.22 53.61 83.44 113.04-8.48 16.93-25.74 37.06-44.83 56.81-12.87 13.33-26.16 26.52-39.6 39.65 2.97-8.03 4.59-16.92 4.59-26.57 0-19.09-8.42-37.67-21.96-51.22-13.07-13.07-31-21.62-50.87-21.62-19.91 0-37.88 8.5-50.96 21.58-13.5 13.5-21.88 32.03-21.88 51.26 0 8.14 1.19 15.79 3.4 22.85-41.75-40.4-80.61-86.18-82.18-130.08-1.65-46.33 34.9-76 76.94-75.47 37.57.51 53.38 19.19 77.84 42.99C374.4 22.55 388.79 4.11 420.14.52zM57.53 99.56c14.56-5.38 29.46 9 22.76 23.85-3.04 6.72-9.73 11.63-16.94 11.44-6.75-.19-12.04-4.6-15.89-9.79l-.24-.46c-8.9-.36-16.13.18-21.26 1.77-3.1.96-4.99 2.09-5.43 3.41-4.01 12.06 7.24 45.17 23.57 77.11.67 1.31 1.34 2.61 2.02 3.9a14.49 14.49 0 0 1 7.43 6.32c7.62 13.14 15.97 25.36 24.2 34.91 12.95 15.04 12.54 15.8 25.85 1.2 8.68-9.53 17.54-22.12 25.57-35.7 1.75-2.95 4.37-5.07 7.34-6.2 17.07-31.58 29.39-65.33 26.87-78.64-.57-3.03-3.28-5.01-7.17-6.32-5-1.68-11.52-2.35-18.6-2.52-.2.41-.4.81-.62 1.22-3.85 5.19-9.14 9.6-15.89 9.79-7.21.19-13.9-4.72-16.94-11.44-6.7-14.85 8.2-29.23 22.76-23.85 1.53.57 3.06 1.32 4.57 2.27.96.6 1.83 1.21 2.62 1.85 10.32.03 20.31.83 28.49 3.58 10.73 3.62 18.42 10.22 20.59 21.71 3.27 17.3-9.6 55.58-28.03 90.24 1.76 4.13 1.6 9-.85 13.16-9 15.2-19.06 29.46-29.12 40.49-6.04 6.64-12.25 12.23-18.44 16.38 13.85 102.91 209.11 193.49 230.64 27.81 2.9-22.37 2.18-44.68 1.52-67.15-.1-3.51-.2-6.94-.28-10.2-25.9-5.63-45.29-26.56-45.29-56.25s25.78-57.57 57.57-57.57 57.57 28.23 57.57 57.57-18.44 49.47-43.35 55.8c.08 3.32.17 6.58.27 9.92.68 23.52 1.34 45.61-1.42 69.11-23.74 202.09-266.34 108.36-283.62-25.46-8.18-4.74-16.56-12.32-24.66-21.72-9.51-11.04-18.95-24.8-27.39-39.37a14.58 14.58 0 0 1-.78-13.07l-1.34-2.61C7.76 179.99-4.29 140.63 1.43 123.47c2.7-8.08 9.11-13.41 18.61-16.36 7.65-2.37 17.59-3.15 29.3-2.59 1.04-.93 2.24-1.83 3.61-2.69 1.52-.95 3.05-1.7 4.58-2.27zm293.38 53.5c16.78 0 30.39 13.6 30.39 30.39 0 16.78-13.61 30.39-30.39 30.39-16.79 0-30.39-13.61-30.39-30.39 0-16.79 13.6-30.39 30.39-30.39z"/></svg>