<?xml version="1.0" encoding="utf-8"?><svg version="1.1" id="Layer_1" xmlns="http://www.w3.org/2000/svg" xmlns:xlink="http://www.w3.org/1999/xlink" x="0px" y="0px" viewBox="0 0 122.88 119.96" style="enable-background:new 0 0 122.88 119.96" xml:space="preserve"><style type="text/css">.st0{fill-rule:evenodd;clip-rule:evenodd;}</style><g><path class="st0" d="M51.6,56.3c-0.51-0.12-0.82-0.64-0.7-1.15c0.12-0.51,0.64-0.82,1.15-0.7c1.66,0.41,3.32,0.62,4.97,0.62 c1.65,0,3.3-0.2,4.96-0.62c0.51-0.13,1.03,0.18,1.15,0.69c0.13,0.51-0.18,1.03-0.69,1.15c-1.8,0.46-3.61,0.68-5.42,0.67 C55.21,56.96,53.4,56.74,51.6,56.3L51.6,56.3z M90.92,93.82c0.02,0.56,0.09,1.19,0.21,1.81c0.1,0.57,0.25,1.13,0.42,1.66 c0.12-0.03,0.24-0.06,0.36-0.08c0.15-0.02,0.31-0.03,0.46-0.03c0.15,0,0.3,0.01,0.45,0.03l0,0v0c0.15,0.02,0.3,0.05,0.45,0.09 c0.16,0.04,0.29,0.14,0.36,0.27c0.08,0.13,0.11,0.29,0.07,0.45c-0.04,0.16-0.14,0.29-0.27,0.37c-0.13,0.08-0.29,0.11-0.45,0.07l0,0 v0c-0.12-0.03-0.23-0.05-0.33-0.07l0,0v0c-0.1-0.02-0.2-0.02-0.29-0.03h0c-0.09,0-0.18,0.01-0.27,0.02 c-0.03,0.01-0.07,0.01-0.1,0.02c0.12,0.24,0.24,0.44,0.37,0.6c0.14,0.18,0.28,0.3,0.41,0.34c0.16,0.05,0.28,0.16,0.34,0.29 c0.07,0.13,0.09,0.3,0.04,0.45c-0.05,0.16-0.16,0.28-0.29,0.34c-0.13,0.07-0.3,0.09-0.45,0.04c-0.39-0.13-0.74-0.42-1.04-0.84 c-0.32-0.44-0.6-1.01-0.84-1.65c-0.2-0.54-0.36-1.14-0.49-1.75c-0.1-0.48-0.18-0.96-0.23-1.42l-0.27,0.24 c-0.26,0.24-0.43,0.37-0.57,0.49l-0.01,0c-0.6,0.49-0.68,0.79-0.82,1.3c-0.04,0.16-0.09,0.34-0.16,0.55h0 c-0.03,0.1-0.07,0.22-0.12,0.33c-0.04,0.11-0.09,0.22-0.14,0.33c-0.07,0.14-0.15,0.28-0.24,0.41c-0.09,0.13-0.19,0.25-0.31,0.36 l-0.01,0.01l-0.03,0.02c0.22,0.36,0.45,0.7,0.7,1.03c0.29,0.38,0.61,0.75,0.94,1.09c0.37,0.38,0.77,0.73,1.19,1.05 c0.41,0.32,0.85,0.6,1.3,0.85c0.67,0.37,1.16,0.57,1.6,0.68c0.44,0.11,0.86,0.15,1.39,0.19c0.17,0.01,0.36,0.03,0.53,0.04 c0.18,0.02,0.38,0.04,0.62,0.06c0.53,0.06,1.04,0.14,1.55,0.22c0.42,0.07,0.84,0.15,1.25,0.23c0.13-1.13,0.61-1.87,1.12-2.66 c0.21-0.33,0.43-0.67,0.62-1.04c0.18-0.36,0.34-0.77,0.44-1.24c0-0.02-0.01-0.04-0.01-0.07c0-0.02,0-0.05,0-0.07 c-0.12-0.47-0.26-0.84-0.4-1.14c-0.15-0.32-0.3-0.57-0.44-0.8c-0.07-0.12-0.14-0.23-0.2-0.34l-0.03-0.05 c-0.03,0.03-0.06,0.07-0.1,0.1c-0.16,0.16-0.34,0.29-0.53,0.39c-0.18,0.1-0.38,0.16-0.59,0.2c-0.01,0-0.02,0.01-0.04,0.01 l-0.03,0.01l-0.01,0l0,0l-0.03,0c-0.01,0-0.03,0-0.04,0l-0.03,0l-0.01,0v0l-0.05,0l-0.01,0c-0.16,0.01-0.31-0.05-0.42-0.15 c-0.11-0.1-0.18-0.25-0.19-0.41c-0.01-0.16,0.05-0.31,0.15-0.43c0.1-0.11,0.24-0.18,0.41-0.19v0l0.03,0l0.01,0l0.01,0v0h0l0,0 l0.02,0l0,0l0.02,0l0.01,0c0.08-0.01,0.16-0.04,0.24-0.09c0.08-0.05,0.16-0.11,0.24-0.18c0.09-0.09,0.17-0.19,0.25-0.31 c0.07-0.11,0.14-0.23,0.21-0.36c-0.05-0.45-0.04-1.01,0.06-1.76c0.1-0.73,0.29-1.63,0.58-2.79l-0.06-0.02 c-0.09-0.03-0.18-0.07-0.27-0.11c-0.3-0.14-0.6-0.33-0.88-0.56l-0.01-0.01c-0.26-0.21-0.5-0.46-0.75-0.75 c-0.29,0.02-0.59,0.01-0.86,0c-0.3-0.01-0.55-0.03-0.75-0.05l-0.01,0c-0.35-0.03-0.68-0.08-0.99-0.15c-0.2-0.05-0.39-0.1-0.58-0.16 c0,0.04-0.01,0.08-0.01,0.13c-0.02,0.16-0.04,0.33-0.08,0.5c-0.03,0.15-0.08,0.31-0.14,0.47c-0.06,0.16-0.13,0.31-0.2,0.46 c-0.08,0.15-0.16,0.3-0.26,0.45c-0.1,0.15-0.21,0.29-0.33,0.44c-0.05,0.06-0.1,0.12-0.15,0.17l-0.06,0.07 c0.06,0.15,0.14,0.3,0.23,0.45l0.01,0.01c0.12,0.19,0.25,0.38,0.39,0.55c0.15,0.18,0.3,0.34,0.46,0.46 c0.12,0.1,0.24,0.18,0.35,0.23c0.09,0,0.18,0,0.26,0.01c0.1,0.01,0.2,0.03,0.3,0.06c0.11,0.03,0.22,0.08,0.32,0.13 c0.1,0.05,0.2,0.12,0.29,0.2c0.13,0.1,0.2,0.25,0.22,0.4c0.02,0.15-0.03,0.31-0.13,0.43c-0.1,0.13-0.25,0.2-0.4,0.22 c-0.15,0.02-0.31-0.03-0.43-0.13c-0.03-0.02-0.06-0.04-0.09-0.06l0,0.02c0.04,0.16,0.02,0.32-0.06,0.45 c-0.07,0.13-0.2,0.23-0.36,0.28c-0.16,0.04-0.32,0.02-0.45-0.06c-0.13-0.07-0.23-0.2-0.28-0.36c-0.03-0.1-0.05-0.2-0.06-0.3 c-0.01-0.1-0.01-0.21,0-0.32v0l0,0c0-0.03,0.01-0.06,0.01-0.1c-0.13-0.09-0.26-0.19-0.38-0.3c-0.17-0.15-0.34-0.33-0.5-0.52 c-0.15-0.18-0.29-0.37-0.41-0.56c-0.07-0.11-0.13-0.22-0.19-0.33c-0.31,0.29-0.64,0.57-0.96,0.84l0,0l-0.22,0.19l0,0L90.92,93.82 L90.92,93.82z M97.86,97.6c-0.12,0-0.22-0.09-0.22-0.21L97.86,97.6L97.86,97.6z M91.04,93.71c-0.04,0.03-0.08,0.05-0.13,0.05 L91.04,93.71L91.04,93.71z M90.02,85.78v-5.41c0-0.02,0-0.04,0-0.06c0.01-0.42-0.01-0.8-0.06-1.14c-0.05-0.35-0.12-0.66-0.21-0.94 c-0.16-0.45-0.4-0.83-0.72-1.1c-0.3-0.26-0.67-0.42-1.12-0.47c-0.16-0.02-0.31-0.02-0.48-0.02c-0.16,0-0.34,0.01-0.52,0.02 c-0.1,0.01-0.19,0.01-0.27,0.02v0c-0.08,0.01-0.16,0.03-0.22,0.04v0l-0.02,0.01c0,0.02,0.01,0.03,0.01,0.05l0,0.01 c0.01,0.03,0.03,0.07,0.05,0.12c0.16,0.22,0.3,0.45,0.43,0.7c0.13,0.25,0.25,0.52,0.36,0.8l0,0c0.11,0.28,0.2,0.58,0.28,0.89 c0.08,0.31,0.15,0.64,0.2,0.98l0,0.01h0l0,0.03l0,0.02c0,0.01,0,0.02,0,0.04v0.01v5.77c0.2-0.12,0.39-0.22,0.59-0.29 c0.31-0.12,0.62-0.17,0.93-0.17v0c0.18,0,0.35,0.02,0.52,0.05l0.02,0C89.88,85.75,89.95,85.76,90.02,85.78L90.02,85.78z M86.57,87.11V80.4c-0.05-0.28-0.11-0.56-0.17-0.82h0c-0.07-0.26-0.15-0.52-0.24-0.76l0-0.01c-0.09-0.23-0.19-0.46-0.3-0.66 c-0.11-0.21-0.23-0.4-0.36-0.58c-0.01-0.01-0.02-0.03-0.03-0.05l0,0c-0.01-0.02-0.02-0.04-0.03-0.05l0,0l0,0 c-0.06-0.11-0.1-0.22-0.14-0.33c-0.04-0.11-0.06-0.22-0.07-0.32c-0.02-0.13-0.01-0.26,0.01-0.38l0-0.02 c0.03-0.12,0.07-0.23,0.13-0.33c0.08-0.13,0.19-0.23,0.32-0.32c0.12-0.08,0.26-0.14,0.41-0.18l0.01,0 c0.11-0.03,0.24-0.06,0.36-0.08c0.13-0.02,0.26-0.03,0.39-0.04h0c0.2-0.01,0.4-0.02,0.6-0.02h0h0.01c0.2,0,0.4,0.01,0.59,0.03 c0.68,0.08,1.26,0.33,1.73,0.73c0.49,0.41,0.86,0.97,1.09,1.63c0.12,0.34,0.21,0.72,0.26,1.14c0.03,0.25,0.06,0.52,0.07,0.8l0,0 c0.15-0.31,0.32-0.61,0.5-0.89l-0.28-0.99c-0.15-0.29-0.2-0.57-0.18-0.83c0.02-0.3,0.13-0.57,0.31-0.79 c0.08-0.1,0.17-0.18,0.26-0.26c0.1-0.08,0.21-0.14,0.32-0.19l0.01,0c0.11-0.05,0.23-0.08,0.34-0.1c0.12-0.02,0.24-0.03,0.36-0.02h0 c0.26,0.02,0.5,0.11,0.71,0.28c0.18,0.15,0.33,0.36,0.42,0.63l0.27,0.53c0.04,0.07,0.06,0.12,0.08,0.16l0.05-0.01l0.02,0l0.08-0.02 l0.01,0c0.15-0.03,0.21-0.04,0.21-0.1v-0.25c0-0.01,0-0.03,0-0.04l0-0.02h0l0-0.03c0-0.01,0-0.02,0.01-0.03 c0.05-0.3,0.17-0.56,0.34-0.75c0.19-0.22,0.44-0.38,0.72-0.47c0.11-0.04,0.22-0.06,0.33-0.07c0.11-0.01,0.23-0.02,0.34-0.01 c0.11,0.01,0.22,0.03,0.34,0.06c0.11,0.03,0.22,0.07,0.31,0.12c0.22,0.12,0.42,0.28,0.55,0.5c0.12,0.2,0.19,0.43,0.2,0.7l0,0.03 v0.01h0v0.41c0.51,0.22,0.95,0.47,1.31,0.77c0.41,0.33,0.73,0.7,0.96,1.13c0.2,0.37,0.34,0.78,0.4,1.23 c0.05,0.37,0.05,0.76-0.01,1.17c0.11,0.01,0.22,0.02,0.33,0.03c0.19,0.02,0.36,0.05,0.52,0.09c0.24,0.05,0.45,0.12,0.65,0.2l0.01,0 c0.2,0.08,0.38,0.18,0.55,0.29l0,0l0,0c0.07,0.05,0.14,0.1,0.21,0.16c0.07,0.06,0.14,0.12,0.2,0.18c0.15,0.15,0.27,0.31,0.37,0.49 c0.1,0.17,0.17,0.36,0.21,0.55l0,0.02c0.04,0.21,0.05,0.42,0.01,0.64c-0.04,0.21-0.12,0.41-0.25,0.61 c-0.03,0.05-0.07,0.1-0.11,0.15l-0.01,0.02c-0.04,0.04-0.08,0.09-0.12,0.13c-0.17,0.17-0.39,0.31-0.64,0.41l0,0l0,0 c-0.24,0.1-0.53,0.17-0.85,0.21l0.06,0.05c0.16,0.15,0.32,0.3,0.46,0.47c0.31,0.36,0.56,0.77,0.72,1.23 c0.16,0.46,0.23,0.96,0.17,1.52c-0.01,0.08-0.02,0.15-0.03,0.23c-0.01,0.03-0.01,0.07-0.02,0.1c0.63,0.74,1.21,1.71,1.72,2.82 c0.54,1.19,1,2.55,1.32,3.92c0.32,1.37,0.51,2.76,0.53,4.06c0.02,1.21-0.12,2.33-0.44,3.25l-0.01,0.02 c-0.17,0.51-0.4,0.97-0.7,1.36c-0.29,0.38-0.64,0.7-1.06,0.94c-0.4,0.23-0.85,0.38-1.35,0.45c-0.47,0.06-0.99,0.04-1.56-0.06 c-0.6-0.12-1.18-0.24-1.77-0.37l-0.04-0.01l-0.01,0v0c-1.36-0.29-2.81-0.61-4.3-0.78c-0.14-0.02-0.27-0.03-0.38-0.04l-0.19-0.02 c-0.12,0.23-0.26,0.44-0.43,0.61c-0.21,0.22-0.45,0.4-0.71,0.52l0,0l0,0c-0.19,0.09-0.39,0.15-0.59,0.19 c-0.2,0.04-0.41,0.04-0.61,0.02c-0.21-0.02-0.41-0.07-0.61-0.15l0,0l0,0c-0.19-0.08-0.38-0.19-0.54-0.32 c-0.13-0.1-0.25-0.23-0.36-0.37c-0.03-0.04-0.07-0.09-0.1-0.13c-0.07,0.08-0.13,0.16-0.21,0.24c-0.16,0.16-0.34,0.3-0.53,0.41 l-0.02,0.01c-0.34,0.19-0.72,0.29-1.1,0.29c-0.38,0-0.76-0.09-1.1-0.29c-0.33-0.19-0.62-0.47-0.84-0.84 c-0.2-0.33-0.34-0.74-0.41-1.22c-0.01-0.04-0.01-0.08-0.01-0.12v-3.73c-0.1-0.15-0.21-0.31-0.31-0.47 c-0.09-0.15-0.18-0.3-0.27-0.45c-0.11-0.03-0.21-0.07-0.31-0.14c-0.13-0.08-0.24-0.19-0.35-0.33c-0.09-0.12-0.18-0.26-0.26-0.43 l0,0c-0.08-0.16-0.15-0.34-0.21-0.55c-0.01-0.02-0.01-0.03-0.01-0.05c0-0.01-0.01-0.02-0.01-0.03c-0.17-1-0.31-2.18-0.32-3.4 c-0.01-1.02,0.05-2.06,0.23-3.07c0.15-0.83,0.39-1.62,0.72-2.35C85.72,88.19,86.1,87.61,86.57,87.11L86.57,87.11z M86.85,75.47 L86.85,75.47L86.85,75.47L86.85,75.47z M102.26,90.45c-0.1,0.08-0.2,0.15-0.32,0.21c-0.19,0.11-0.41,0.2-0.66,0.28 c-0.13,0.04-0.26,0.07-0.38,0.09c-0.07,0.01-0.14,0.02-0.22,0.03c-0.07,0.28-0.14,0.53-0.19,0.76c-0.06,0.25-0.12,0.49-0.17,0.73 c0.73,1.76,1.62,2.12,2.36,2.42c0.4,0.16,0.76,0.31,1.09,0.57l0.01,0.01c0.33,0.27,0.6,0.64,0.78,1.23l0,0.01 c0.04,0.15,0.02,0.31-0.04,0.44c-0.07,0.13-0.19,0.24-0.35,0.29c-0.16,0.05-0.32,0.03-0.45-0.04c-0.13-0.07-0.24-0.19-0.29-0.35 l0,0c-0.21-0.66-0.66-0.85-1.18-1.06c-0.01,0-0.02-0.01-0.03-0.01c-0.4-0.16-0.82-0.33-1.26-0.64c-0.32-0.23-0.64-0.53-0.95-0.96 c-0.08,1.17,0.18,1.62,0.52,2.19c0.01,0.01,0.01,0.02,0.02,0.03c0.31,0.51,0.67,1.11,0.95,2.19c0.2,0.1,0.39,0.22,0.56,0.35 c0.2,0.15,0.4,0.31,0.57,0.49c0.19,0.2,0.36,0.41,0.51,0.64c0.14,0.21,0.27,0.45,0.38,0.69l0.73,0.5c0.13,0.09,0.22,0.23,0.25,0.38 c0.03,0.15,0,0.31-0.09,0.44c-0.09,0.13-0.23,0.22-0.38,0.25c-0.15,0.03-0.31,0-0.44-0.09l-0.34-0.23l-0.31,0.55 c-0.01,0.01-0.01,0.02-0.02,0.03c-0.08,0.13-0.21,0.22-0.35,0.26c-0.14,0.04-0.29,0.03-0.43-0.04c-0.01-0.01-0.03-0.01-0.04-0.02 c-0.13-0.08-0.22-0.21-0.26-0.35l0-0.01c-0.04-0.14-0.02-0.3,0.06-0.44l0.49-0.86c-0.08-0.15-0.16-0.29-0.25-0.43 c-0.11-0.16-0.23-0.31-0.36-0.44c-0.09-0.1-0.2-0.19-0.31-0.28c-0.03-0.03-0.07-0.05-0.1-0.08c-0.12,0.39-0.27,0.73-0.44,1.05 c-0.2,0.38-0.42,0.73-0.64,1.06c-0.24,0.37-0.47,0.72-0.64,1.12c-0.15,0.34-0.26,0.71-0.3,1.14l0.46,0.1l0,0v0 c0.34,0.07,0.66,0.14,0.91,0.2c0.3,0.06,0.59,0.12,0.87,0.18c0.43,0.08,0.81,0.1,1.16,0.06c0.35-0.04,0.67-0.15,0.94-0.3 c0.28-0.16,0.52-0.38,0.72-0.65c0.21-0.29,0.38-0.63,0.51-1.01l0-0.01l0-0.01l0-0.01l0,0c0.28-0.81,0.39-1.81,0.38-2.9 c-0.02-1.19-0.2-2.48-0.5-3.76c-0.29-1.24-0.69-2.45-1.16-3.53C103.24,91.94,102.76,91.1,102.26,90.45L102.26,90.45z M93.33,104.85 c-0.27-0.03-0.54-0.08-0.82-0.15c-0.3-0.08-0.62-0.19-0.98-0.35c0.02,0.06,0.05,0.11,0.08,0.17c0.09,0.17,0.2,0.31,0.33,0.41 c0.08,0.06,0.16,0.11,0.25,0.15c0.09,0.04,0.18,0.06,0.28,0.07c0.1,0.01,0.19,0.01,0.29-0.01c0.09-0.02,0.19-0.05,0.29-0.09 C93.15,104.98,93.25,104.92,93.33,104.85L93.33,104.85z M90.14,103.58c-0.38-0.24-0.74-0.5-1.1-0.78c-0.39-0.31-0.76-0.65-1.11-1 c-0.07-0.08-0.15-0.15-0.22-0.23v2.22c0.04,0.29,0.13,0.53,0.24,0.72c0.12,0.2,0.27,0.35,0.43,0.45c0.08,0.05,0.16,0.08,0.25,0.1 c0.09,0.02,0.18,0.03,0.27,0.03c0.09,0,0.18-0.01,0.27-0.04l0.02,0c0.08-0.02,0.16-0.06,0.24-0.1h0l0,0 c0.18-0.1,0.34-0.26,0.47-0.46l0,0c0.12-0.19,0.2-0.42,0.24-0.7V103.58L90.14,103.58z M92.6,86.74c0.27-0.71,0.6-1.36,0.98-1.93 c0.39-0.58,0.83-1.09,1.34-1.52c-0.05-0.24-0.07-0.48-0.05-0.7c0.02-0.27,0.1-0.53,0.22-0.76c0.1-0.18,0.5-0.6,0.93-0.88 c0.19-0.13,0.38-0.23,0.57-0.27c0.22-0.06,0.43-0.04,0.59,0.1l0,0c0.08,0.07,0.13,0.16,0.17,0.28c0.14,0.44-0.24,0.66-0.65,0.9 c-0.23,0.13-0.47,0.27-0.56,0.43c-0.02,0.04-0.04,0.08-0.05,0.12c0.43-0.23,0.89-0.41,1.38-0.55l0,0c0.57-0.16,1.19-0.26,1.85-0.3 c0.05-0.34,0.07-0.65,0.04-0.94c-0.03-0.33-0.13-0.62-0.27-0.89c-0.16-0.29-0.39-0.56-0.68-0.79c-0.3-0.23-0.66-0.44-1.09-0.61 l-0.14-0.02c-0.15-0.02-0.27-0.09-0.36-0.2c-0.08-0.1-0.14-0.22-0.14-0.36c0-0.01,0-0.02,0-0.03v-0.01v-0.85c0-0.01,0-0.02,0-0.03 l0-0.01c0-0.03-0.01-0.06-0.03-0.08c-0.02-0.03-0.05-0.05-0.08-0.07c-0.03-0.01-0.05-0.02-0.09-0.03l-0.01,0 c-0.03-0.01-0.06-0.01-0.1-0.02c-0.04,0-0.08,0-0.12,0c-0.04,0-0.07,0.01-0.11,0.02v0c-0.07,0.02-0.13,0.06-0.17,0.1 c-0.03,0.04-0.06,0.09-0.08,0.15v0.2c0,0.5-0.09,0.78-0.3,0.96l-0.02,0.01c-0.2,0.17-0.47,0.22-0.86,0.29l-0.08,0.01 c-0.01,0-0.02,0.01-0.03,0.01c-0.43,0.08-0.67,0.11-0.86,0.02c-0.21-0.1-0.29-0.28-0.44-0.6l0-0.01c-0.03-0.06-0.06-0.13-0.09-0.18 l-0.01-0.01l-0.29-0.57l0,0l0,0c-0.01-0.01-0.01-0.03-0.02-0.05l0-0.01h0l0-0.01l0-0.01l-0.01-0.02h0 c-0.01-0.05-0.03-0.08-0.05-0.1c-0.02-0.02-0.04-0.02-0.06-0.03l0,0c-0.02,0-0.04,0-0.06,0c-0.02,0-0.05,0.01-0.07,0.02l-0.01,0 c-0.02,0.01-0.04,0.02-0.06,0.04c-0.02,0.02-0.04,0.03-0.06,0.06c-0.03,0.04-0.05,0.09-0.05,0.15h0c0,0.06,0.02,0.14,0.07,0.23 l0.01,0.02c0.01,0.02,0.02,0.04,0.02,0.05l0,0.01c0.01,0.02,0.01,0.04,0.02,0.05l0,0l0.37,1.31c0.02,0.09,0.03,0.18,0.01,0.26l0,0 c-0.01,0.08-0.04,0.15-0.09,0.22c-0.01,0.01-0.01,0.02-0.02,0.03c-0.3,0.42-0.55,0.87-0.75,1.37c-0.2,0.51-0.36,1.05-0.48,1.64 c-0.12,0.58-0.2,1.21-0.25,1.88c-0.05,0.64-0.08,1.31-0.1,2.01c0.24,0.11,0.5,0.19,0.76,0.28C92.21,86.59,92.4,86.66,92.6,86.74 L92.6,86.74z M93.87,87.55c0.08,0.06,0.16,0.11,0.25,0.17c0.1,0.06,0.2,0.11,0.3,0.15c0.21,0.1,0.45,0.17,0.72,0.23 c0.26,0.06,0.55,0.1,0.87,0.13c0.2,0.02,0.45,0.04,0.69,0.05c0.25,0.01,0.53,0.01,0.79,0l0.01,0c0.23-0.02,0.44-0.04,0.62-0.09 c0.16-0.04,0.28-0.1,0.35-0.18c0.09-0.1,0.17-0.24,0.23-0.4c0.07-0.17,0.12-0.38,0.16-0.61c0.04-0.25,0.07-0.53,0.08-0.83 c0.01-0.3,0.01-0.63,0-0.97c0-0.02,0-0.04,0-0.06c0-0.02,0-0.05,0.01-0.07l0,0h0c0.02-0.16,0.11-0.3,0.23-0.39 c0.12-0.09,0.28-0.14,0.44-0.11l0,0v0c0.38,0.05,0.72,0.09,1.02,0.1c0.3,0.01,0.57,0,0.8-0.02c0.2-0.02,0.38-0.06,0.52-0.11 c0.13-0.05,0.23-0.11,0.3-0.18c0.02-0.02,0.04-0.04,0.05-0.05l0,0c0.02-0.02,0.03-0.04,0.04-0.05l0,0l0,0 c0.04-0.05,0.06-0.11,0.07-0.17c0.01-0.06,0.01-0.13-0.01-0.19l0,0l0,0c-0.02-0.08-0.05-0.15-0.09-0.23l0,0 c-0.05-0.08-0.11-0.16-0.18-0.23c-0.03-0.03-0.07-0.06-0.1-0.09l-0.01-0.01c-0.03-0.02-0.07-0.05-0.1-0.07 c-0.11-0.07-0.23-0.13-0.36-0.19l-0.01,0c-0.13-0.05-0.28-0.1-0.45-0.13c-0.17-0.04-0.35-0.07-0.55-0.09 c-0.19-0.02-0.39-0.03-0.6-0.03c-0.04,0.01-0.09,0.02-0.13,0.02c-0.06,0-0.11,0-0.17-0.02l0,0c-0.75,0.02-1.43,0.13-2.04,0.32 c-0.63,0.2-1.19,0.5-1.69,0.88c-0.51,0.39-0.95,0.87-1.33,1.44c-0.37,0.55-0.68,1.18-0.93,1.88l0,0l0.01,0.01 C93.73,87.41,93.83,87.51,93.87,87.55L93.87,87.55z M91.13,87.53c-0.39-0.21-0.73-0.38-1.04-0.49c-0.3-0.11-0.56-0.17-0.82-0.17 c-0.23,0-0.47,0.06-0.72,0.18c-0.27,0.13-0.55,0.34-0.88,0.63c-0.47,0.42-0.83,0.95-1.12,1.53c-0.32,0.66-0.54,1.4-0.69,2.18 c-0.17,0.92-0.23,1.89-0.21,2.84c0.02,1.14,0.14,2.24,0.3,3.19c0.04,0.13,0.09,0.25,0.13,0.34l0,0l0,0 c0.04,0.09,0.09,0.17,0.13,0.22l0.01,0.01c0.01,0.01,0.02,0.02,0.03,0.03c0.01,0,0.02,0,0.03-0.01c0.03-0.01,0.06-0.03,0.09-0.06 l0,0l0,0c0.05-0.05,0.1-0.1,0.14-0.17c0.05-0.07,0.09-0.15,0.14-0.24l0.01-0.01c0.04-0.08,0.07-0.16,0.11-0.24l0,0 c0.03-0.09,0.06-0.17,0.09-0.25l0.01-0.02c0.07-0.21,0.13-0.41,0.18-0.59c0.21-0.73,0.31-1.09,1.18-1.8l0.01-0.01 c0.09-0.07,0.18-0.15,0.25-0.21l0,0l0,0c0.1-0.08,0.2-0.17,0.28-0.24l1.05-0.94c0.13-0.11,0.24-0.22,0.35-0.31l0.34-0.3l0,0 c0.68-0.59,1.43-1.23,1.9-1.81c0.09-0.11,0.18-0.23,0.25-0.34c0.08-0.11,0.14-0.23,0.2-0.34c0.06-0.11,0.1-0.21,0.14-0.32l0-0.01 c0.04-0.1,0.07-0.2,0.09-0.31c0.06-0.26,0.08-0.48,0.07-0.66c-0.01-0.17-0.05-0.3-0.12-0.41l0,0l-0.01-0.02 c-0.05-0.04-0.1-0.09-0.16-0.14l0,0l0,0c-0.05-0.05-0.1-0.1-0.15-0.15c-0.08-0.05-0.16-0.1-0.26-0.14c-0.1-0.05-0.23-0.1-0.36-0.15 c-0.1-0.04-0.27-0.08-0.43-0.12l-0.01,0c-0.21-0.05-0.41-0.1-0.52-0.16L91.13,87.53L91.13,87.53z M93,89.8 c0.04-0.11,0.16-0.16,0.27-0.12L93,89.8L93,89.8z M100.13,86.18c0,0.12-0.01,0.23-0.02,0.34c-0.02,0.23-0.04,0.46-0.08,0.67 c-0.06,0.33-0.14,0.63-0.24,0.89c-0.11,0.27-0.26,0.51-0.43,0.71c-0.11,0.12-0.23,0.22-0.37,0.3c-0.04,0.02-0.08,0.04-0.12,0.07 c0.09,0.09,0.19,0.17,0.29,0.24l0.01,0.01c0.16,0.12,0.33,0.22,0.5,0.3c0.09,0.04,0.19,0.08,0.29,0.11 c0.09,0.03,0.18,0.04,0.27,0.05c0.02,0,0.04,0,0.06,0l0.01,0c0.02,0,0.03,0,0.05,0.01c0.1,0,0.19,0,0.29-0.01 c0.11-0.01,0.21-0.04,0.31-0.07c0.16-0.05,0.3-0.11,0.41-0.17l0.01-0.01c0.1-0.06,0.18-0.12,0.25-0.19 c0.06-0.06,0.1-0.13,0.14-0.21c0.03-0.08,0.05-0.17,0.06-0.26c0.04-0.37-0.01-0.71-0.12-1.02c-0.11-0.31-0.28-0.59-0.5-0.84 c-0.18-0.22-0.4-0.42-0.64-0.6l-0.01-0.01C100.42,86.38,100.27,86.28,100.13,86.18L100.13,86.18z M99.16,89.41 c0.08,0.07,0.1,0.2,0.03,0.29L99.16,89.41L99.16,89.41z M72.45,71.66c-1.6-1.63-2.79-3.37-3.98-5.1c-0.19-0.28-0.39-0.57-0.59-0.86 c-2.86,2.27-6.33,3.72-10.85,3.7c-4.88-0.01-8.55-1.88-11.56-4.63c-0.18-0.16-0.36-0.33-0.53-0.5c-0.43,1.2-0.98,2.63-1.57,3.97 c-0.56,1.27-1.16,2.47-1.74,3.34C47.9,84.3,66.44,84.74,72.45,71.66L72.45,71.66z M55.76,7.2h2.51c0.47,0,0.85,0.38,0.85,0.85v3.74 l3.74,0c0.47,0,0.85,0.38,0.85,0.85v2.51c0,0.47-0.38,0.85-0.85,0.85h-3.74v3.74c0,0.47-0.38,0.85-0.85,0.85h-2.51 c-0.47,0-0.85-0.38-0.85-0.85v-3.74h-3.74c-0.47,0-0.85-0.38-0.85-0.85v-2.51c0-0.47,0.38-0.85,0.85-0.85h3.74V8.05 C54.91,7.58,55.29,7.2,55.76,7.2L55.76,7.2L55.76,7.2z M94.32,62.84c7.89,0,15.03,3.2,20.19,8.36c5.17,5.17,8.37,12.31,8.37,20.19 c0,7.89-3.2,15.03-8.37,20.19c-5.17,5.17-12.31,8.36-20.19,8.36c-7.89,0-15.03-3.2-20.19-8.36c-2.3-2.3-4.22-5-5.63-7.98H6.24 c-3.92-0.3-5.91-2.32-6.24-5.83c0.95-6.93,1.18-8.34,5.39-13.9c1.49-1.97,3.35-3.43,5.41-4.58c6.3-3.51,22.88-4.62,29.28-9.51 c0.4-0.68,0.81-1.54,1.21-2.45c0.76-1.74,1.46-3.64,1.9-4.94c-1.86-2.19-3.45-4.65-4.97-7.08l-5.03-8 c-1.84-2.74-2.8-5.25-2.85-7.31c-0.03-0.97,0.14-1.85,0.49-2.62c0.38-0.81,0.95-1.49,1.73-2.01c0.36-0.25,0.77-0.45,1.22-0.62 c-0.33-4.34-0.45-9.81-0.24-14.38c0.11-1.09,0.32-2.17,0.62-3.26c7.88-28.14,45.66-18.13,47.32,5.1l-0.31,13.05v0 c1.39,0.42,2.29,1.31,2.65,2.74c0.4,1.59-0.03,3.82-1.38,6.87l0,0c-0.02,0.06-0.05,0.11-0.09,0.16l-5.73,9.44 c-2.11,3.47-4.24,6.95-7.03,9.69c0.25,0.36,0.5,0.73,0.75,1.09c0.94,1.37,1.88,2.75,3,4.02l0,0c0.46,0.41,0.98,0.79,1.56,1.16 C80.01,65.73,86.83,62.84,94.32,62.84L94.32,62.84z M110.91,74.81c-4.25-4.25-10.11-6.87-16.59-6.87c-6.48,0-12.34,2.63-16.59,6.87 c-4.25,4.24-6.87,10.11-6.87,16.59c0,6.48,2.63,12.34,6.87,16.59c4.24,4.25,10.11,6.87,16.59,6.87c6.48,0,12.34-2.63,16.59-6.87 c4.24-4.24,6.87-10.11,6.87-16.59C117.78,84.92,115.16,79.06,110.91,74.81L110.91,74.81z M63.02,39.76 c-0.42-0.28-0.53-0.84-0.25-1.26c0.28-0.42,0.84-0.53,1.26-0.25c0.5,0.33,1.35,0.51,2.26,0.49c0.86-0.01,1.72-0.2,2.34-0.6 c0.42-0.27,0.98-0.14,1.25,0.28c0.27,0.42,0.14,0.98-0.28,1.25c-0.91,0.58-2.12,0.86-3.28,0.88C65.06,40.58,63.82,40.3,63.02,39.76 L63.02,39.76L63.02,39.76z M76.46,34.5c-0.03-0.98-0.38-1.93-1.01-2.82l-0.03-0.07l-0.01,0.02c-5.98-8.46-35.74-12.28-37.02,5.38 l0.05,0.12l-2.2-0.18l0.16,0.51l-0.15-0.34c-0.91,0.08-1.62,0.3-2.12,0.64c-0.33,0.22-0.57,0.5-0.73,0.84 c-0.17,0.37-0.25,0.83-0.24,1.35c0.04,1.53,0.85,3.53,2.4,5.84l0.02,0.03l5.03,8C53.34,74.01,64.9,68.34,74.2,53.02l5.67-9.33 c1.06-2.41,1.44-4.02,1.2-4.97c-0.14-0.56-0.77-0.84-1.82-0.89c-0.22-0.01-0.46-0.01-0.69-0.01c-0.25,0.01-0.52,0.02-0.79,0.05 c-0.03,0-0.06,0-0.09,0.01L76.46,34.5L76.46,34.5z M44.66,39.76c-0.42-0.28-0.53-0.84-0.25-1.26c0.28-0.42,0.84-0.53,1.26-0.25 c0.51,0.34,1.37,0.53,2.3,0.53c0.87,0,1.76-0.19,2.46-0.59c0.43-0.25,0.99-0.1,1.24,0.33c0.25,0.43,0.1,0.99-0.33,1.24 c-0.98,0.57-2.2,0.82-3.36,0.83C46.7,40.6,45.46,40.3,44.66,39.76L44.66,39.76L44.66,39.76z M44.29,35.72 c-0.41,0.29-0.97,0.19-1.26-0.21c-0.29-0.41-0.2-0.97,0.21-1.26c1.35-0.96,2.73-1.44,4.15-1.45c1.41-0.01,2.82,0.47,4.23,1.44 c0.41,0.28,0.51,0.85,0.23,1.26c-0.28,0.41-0.85,0.52-1.26,0.23c-1.1-0.76-2.16-1.13-3.2-1.12C46.37,34.6,45.33,34.98,44.29,35.72 L44.29,35.72L44.29,35.72z M63.88,35.72c-0.41,0.29-0.97,0.19-1.26-0.21c-0.29-0.41-0.19-0.97,0.21-1.26 c1.35-0.96,2.73-1.44,4.15-1.45c1.41-0.01,2.82,0.47,4.23,1.44c0.41,0.28,0.51,0.85,0.23,1.26c-0.28,0.41-0.85,0.52-1.26,0.23 c-1.1-0.76-2.16-1.13-3.2-1.12C65.96,34.6,64.92,34.98,63.88,35.72L63.88,35.72L63.88,35.72z"/></g></svg>