<svg id="Layer_1" data-name="Layer 1" xmlns="http://www.w3.org/2000/svg" viewBox="0 0 122.88 96.57"><defs><style>.cls-1{fill-rule:evenodd;}</style></defs><title>medical-ventilator</title><path class="cls-1" d="M89.08,66.94H84.36V35.79a5.19,5.19,0,0,0-.4-2,5.39,5.39,0,0,0-1.14-1.71h0a5.18,5.18,0,0,0-3.71-1.55H66.16V27.68h17.1V0H36.9V27.68h17v2.84H41.06a5.18,5.18,0,0,0-3.71,1.55h0a5.51,5.51,0,0,0-1.14,1.71,5.19,5.19,0,0,0-.4,2v1H29.87A2.14,2.14,0,0,0,27.74,39v6.74a2.13,2.13,0,0,0,2.13,2.12h1v.13c.47,6.07-2,10-5.4,11.85a11,11,0,0,1-5,1.28A11.71,11.71,0,0,1,15.27,60c-3.89-1.8-6.93-5.86-6.84-12.16v0h0V26.25h2.44a2.76,2.76,0,0,0,2.76-2.75V13.4a2.76,2.76,0,0,0-2.76-2.75H2.75A2.75,2.75,0,0,0,0,13.4V23.5a2.76,2.76,0,0,0,2.75,2.75H5V47.81H5c-.11,7.85,3.82,13,8.82,15.28a15.17,15.17,0,0,0,6.67,1.39,14.32,14.32,0,0,0,6.55-1.68c4.5-2.44,7.74-7.42,7.2-15H35.8V86.67a5.26,5.26,0,0,0,5.26,5.27h3.08v3.55a1.08,1.08,0,0,0,1.08,1.08h3.43a1.08,1.08,0,0,0,1.09-1.08V91.94H70.42v3.55a1.08,1.08,0,0,0,1.08,1.08h3.44A1.08,1.08,0,0,0,76,95.49V91.94H79.1a5.27,5.27,0,0,0,5.26-5.27V86c0-.32,0-.66,0-1V77.92H86.5a14.78,14.78,0,0,0,2.74,6.49A13.41,13.41,0,0,0,96,89.08a15,15,0,0,0,8,.21,14.75,14.75,0,0,0,8.26-5.4c3.65-4.8,3.49-11.22,3.34-17,0-1,0-1.93,0-3.2V41.3h.11a1.5,1.5,0,0,0,1.5-1.5V37.47h2.4a3.34,3.34,0,0,0,3.33-3.33V16a3.34,3.34,0,0,0-3.33-3.33H107.06A3.34,3.34,0,0,0,103.73,16V34.14a3.34,3.34,0,0,0,3.33,3.33h2.4V39.8a1.5,1.5,0,0,0,1.5,1.5h1.15V63.64c0,.82,0,2,.07,3.28.13,5.27.28,11.07-2.64,14.91A11.38,11.38,0,0,1,103.18,86a11.54,11.54,0,0,1-6.2-.16h0a9.89,9.89,0,0,1-5-3.47,11.19,11.19,0,0,1-2-4.61A2.13,2.13,0,0,0,91.2,75.8V69.06a2.13,2.13,0,0,0-2.12-2.12ZM49.45,47h4V50.1h-4V47Zm17.29,18h4v3.07h-4V65.07Zm-8.64,0h4v3.07h-4V65.07Zm-8.65,0h4v3.07h-4V65.07Zm17.29-9h4v3.07h-4V56.05Zm-8.64,0h4v3.07h-4V56.05Zm-8.65,0h4v3.07h-4V56.05Zm17.29-9h4V50.1h-4V47ZM58.1,47h4V50.1h-4V47ZM81.71,66.94h-.07V72.3h-7.1V40.75H45.62V72.3H38.44V35.79a2.51,2.51,0,0,1,.2-1,2.75,2.75,0,0,1,.57-.86,2.59,2.59,0,0,1,1.85-.76h38a2.68,2.68,0,0,1,1,.19,2.6,2.6,0,0,1,1.43,1.43,2.7,2.7,0,0,1,.19,1V66.94Zm-.07,7.64v3.34h.07v8.75a2.54,2.54,0,0,1-.32,1.26,3.32,3.32,0,0,1-1.91,1.23H40.24a2.63,2.63,0,0,1-1-.64,2.59,2.59,0,0,1-.57-.85l0-.07v-13ZM39.93,12.93h6.26l2.18,4.39L53.24,4.41l2.63,8.84h3.31l1.91,3.35,2.35-3.83H80.23V3H39.93v9.9Zm40.3,2.13H64.71l-3.69,6-3.16-5.55H54.17l-1.18-4L48.65,23l-3.87-7.82H39.93v9.44h40.3V15.06Z"/></svg>