<svg id="Layer_1" data-name="Layer 1" xmlns="http://www.w3.org/2000/svg" viewBox="0 0 69.05 122.88"><title>sanitizer</title><path d="M21,40.27h2.07V27.73a.67.67,0,0,1,.67-.68H30.2a2,2,0,0,1-.14-.73V14h-23a2.32,2.32,0,0,1-2.39-1.67L.25,3.55l-.1-.24A2.22,2.22,0,0,1,0,2.51,2.4,2.4,0,0,1,.56,1,2.67,2.67,0,0,1,1.44.31,2.64,2.64,0,0,1,2.67,0h49.7a2.67,2.67,0,0,1,1.87.77,1.64,1.64,0,0,1,.21.25A2.61,2.61,0,0,1,55,2.64v8.67A2.65,2.65,0,0,1,52.37,14H46V26.25a2.15,2.15,0,0,1-.16.8h6.4a.68.68,0,0,1,.68.68V40.27h2.58a13.47,13.47,0,0,1,9.54,4v0a13.47,13.47,0,0,1,4,9.54v55.56a13.55,13.55,0,0,1-13.52,13.52H21a13.48,13.48,0,0,1-9.55-4l-.11-.12a13.52,13.52,0,0,1-3.86-9.43V53.8a13.48,13.48,0,0,1,4-9.55h0a13.47,13.47,0,0,1,9.54-4ZM35,65.16h6.61a2.25,2.25,0,0,1,2.25,2.24v8.72h8.71a2.25,2.25,0,0,1,2.25,2.25V85a2.26,2.26,0,0,1-2.25,2.25H43.81v8.52A2.25,2.25,0,0,1,41.56,98H35a2.25,2.25,0,0,1-2.25-2.25V87.23H24A2.26,2.26,0,0,1,21.74,85V78.37A2.25,2.25,0,0,1,24,76.12h8.72V67.4A2.24,2.24,0,0,1,35,65.16ZM11.52,106.33H65V56.83H11.52v49.5Zm53.41,4.06H11.58a9.38,9.38,0,0,0,2.62,5.55l.1.1A9.48,9.48,0,0,0,21,118.82H55.53a9.49,9.49,0,0,0,9.4-8.43ZM11.58,52.77H64.93a9.42,9.42,0,0,0-2.71-5.65h0a9.43,9.43,0,0,0-6.68-2.77H21a9.47,9.47,0,0,0-9.4,8.43Zm-5-38.06c1.48,6.35,5.94,9.52,5.94,12.69s-1.48,6.35-5.94,6.35S.67,30.58.67,27.4s4.46-6.34,6-12.69ZM42,14H34.12V26.32a2,2,0,0,1-.13.73h8.15a2,2,0,0,1-.17-.8V14Z"/></svg>